# xmcd
#
# Track frame offsets:
#	150
#	19272
#	31467
#	47050
#	59977
#	75477
#	87887
#	98862
#	113960
#	131632
#	146515
#	160905
#	176562
#
# Disc length: 2617 seconds
#
# Revision: 0
# Processed by: cddbd v1.5.1PL2 Copyright (c) Steve Scherf et al.
# Submitted via: SynApp - FreeCDDB Version: 2.0
#
DISCID=b10a370d
DTITLE=Beikircher - sing H. C. Artmann, CD2
DYEAR=2000
DGENRE=A capella
TTITLE0=libhazzdoe
TTITLE1=blauboad 2
TTITLE2=med an brief fon mia zu dia
TTITLE3=wos unguaz
TTITLE4=dei lug
TTITLE5=bleib schdee mei engal
TTITLE6=astan en gasliacht
TTITLE7=es gibt guade und bese geatna:des is es liad fon an besn
TTITLE8=alanech fia dii
TTITLE9=dod en wossa
TTITLE10=en an schbedn heabst (fia d eani)
TTITLE11=waun s d a bech hosd
TTITLE12=waun e schdeam soit
EXTD=
EXTT0=
EXTT1=
EXTT2=
EXTT3=
EXTT4=
EXTT5=
EXTT6=
EXTT7=
EXTT8=
EXTT9=
EXTT10=
EXTT11=
EXTT12=
PLAYORDER=
